<svg viewBox="0 0 24 24" xmlns="http://www.w3.org/2000/svg"><path fill-rule="evenodd" clip-rule="evenodd" d="M6.00745 3.40698C7.68752 1.72691 10.5227 1.85463 11.6925 3.95075L12.3415 5.11368C13.1054 6.4825 12.7799 8.20958 11.6616 9.34156C11.6467 9.36196 11.5677 9.47689 11.5579 9.67771C11.5454 9.93403 11.6364 10.5268 12.5548 11.4452C13.4729 12.3634 14.0656 12.4546 14.3221 12.4421C14.5231 12.4324 14.6381 12.3534 14.6585 12.3385C15.7905 11.2202 17.5176 10.8946 18.8864 11.6586L20.0493 12.3076C22.1454 13.4774 22.2731 16.3125 20.5931 17.9926C19.6944 18.8913 18.4995 19.6898 17.0953 19.743C15.0144 19.8219 11.5591 19.2845 8.13735 15.8627C4.71556 12.4409 4.17818 8.98569 4.25706 6.90476C4.3103 5.50056 5.10879 4.30564 6.00745 3.40698ZM10.3827 4.68175C9.78363 3.6084 8.17394 3.36181 7.06811 4.46764C6.29276 5.24299 5.7887 6.0988 5.75599 6.96158C5.6902 8.69692 6.11864 11.7227 9.19801 14.802C12.2774 17.8814 15.3031 18.3099 17.0385 18.2441C17.9013 18.2114 18.7571 17.7073 19.5324 16.9319C20.6382 15.8261 20.3916 14.2164 19.3183 13.6174L18.1554 12.9684C17.432 12.5647 16.4158 12.7024 15.7025 13.4157L15.7023 13.4159C15.6322 13.4859 15.1864 13.9019 14.395 13.9404C13.5847 13.9798 12.604 13.6157 11.4942 12.5059C10.384 11.3957 10.02 10.4147 10.0597 9.60435C10.0985 8.81284 10.5147 8.36723 10.5843 8.29758L10.5844 8.29755C11.2977 7.58423 11.4354 6.56809 11.0317 5.84468L10.3827 4.68175Z"/></svg>