<svg viewBox="0 0 24 24" xmlns="http://www.w3.org/2000/svg"><path d="M14 2.00012C14 2.00012 16.2 2.20012 19 5.00012C21.8 7.80012 22 10.0001 22 10.0001" stroke-width="1.5" stroke-linecap="round"/><path d="M14.207 5.53577C14.207 5.53577 15.197 5.81861 16.6819 7.30353C18.1668 8.78846 18.4497 9.77841 18.4497 9.77841" stroke-width="1.5" stroke-linecap="round"/><path d="M4.00655 7.93321C3.93421 9.84135 4.41713 13.0818 7.6677 16.3324C8.45191 17.1166 9.23553 17.7397 10 18.2329M5.53781 4.93735C6.93076 3.5444 9.15317 3.73156 10.0376 5.31629L10.6866 6.47922C11.2723 7.5287 11.0372 8.90544 10.1147 9.82792C10.1147 9.82792 10.1147 9.82792 10.1147 9.82793C10.1146 9.82804 8.99588 10.947 11.0245 12.9756C13.0525 15.0036 14.1714 13.8862 14.1722 13.8854C14.1722 13.8854 14.1722 13.8854 14.1722 13.8854C15.0947 12.9629 16.4714 12.7278 17.5209 13.3135L18.6838 13.9625C20.2686 14.8469 20.4557 17.0694 19.0628 18.4623C18.2258 19.2993 17.2004 19.9506 16.0669 19.9936C15.2529 20.0244 14.1963 19.9542 13 19.6112" stroke-width="1.5" stroke-linecap="round"/></svg>