<svg viewBox="0 0 24 24" xmlns="http://www.w3.org/2000/svg"><path fill-rule="evenodd" clip-rule="evenodd" d="M9.46412 15.2501C10.2616 14.4005 10.75 13.2573 10.75 12.0001C10.75 9.37677 8.62335 7.25012 6 7.25012C3.37665 7.25012 1.25 9.37677 1.25 12.0001C1.25 14.6235 3.37665 16.7501 6 16.7501H18C20.6234 16.7501 22.75 14.6235 22.75 12.0001C22.75 9.37677 20.6234 7.25012 18 7.25012C15.3766 7.25012 13.25 9.37677 13.25 12.0001C13.25 13.2573 13.7384 14.4005 14.5359 15.2501H9.46412ZM6 8.75012C4.20507 8.75012 2.75 10.2052 2.75 12.0001C2.75 13.795 4.20507 15.2501 6 15.2501C7.79493 15.2501 9.25 13.795 9.25 12.0001C9.25 10.2052 7.79493 8.75012 6 8.75012ZM18 15.2501C19.7949 15.2501 21.25 13.795 21.25 12.0001C21.25 10.2052 19.7949 8.75012 18 8.75012C16.2051 8.75012 14.75 10.2052 14.75 12.0001C14.75 13.795 16.2051 15.2501 18 15.2501Z"/></svg>