<svg viewBox="0 0 24 24" xmlns="http://www.w3.org/2000/svg"><path fill-rule="evenodd" clip-rule="evenodd" d="M11.25 12.0001C11.25 12.6444 11.0625 13.245 10.7391 13.7501H13.2609C12.9375 13.245 12.75 12.6444 12.75 12.0001C12.75 10.2052 14.2051 8.75012 16 8.75012C17.7949 8.75012 19.25 10.2052 19.25 12.0001C19.25 13.795 17.7949 15.2501 16 15.2501H8C6.20507 15.2501 4.75 13.795 4.75 12.0001C4.75 10.2052 6.20507 8.75012 8 8.75012C9.79493 8.75012 11.25 10.2052 11.25 12.0001ZM6.25 12.0001C6.25 11.0336 7.0335 10.2501 8 10.2501C8.9665 10.2501 9.75 11.0336 9.75 12.0001C9.75 12.9666 8.9665 13.7501 8 13.7501C7.0335 13.7501 6.25 12.9666 6.25 12.0001ZM17.75 12.0001C17.75 12.9666 16.9665 13.7501 16 13.7501C15.0335 13.7501 14.25 12.9666 14.25 12.0001C14.25 11.0336 15.0335 10.2501 16 10.2501C16.9665 10.2501 17.75 11.0336 17.75 12.0001Z"/><path fill-rule="evenodd" clip-rule="evenodd" d="M11.9426 1.25012C9.63423 1.25011 7.82519 1.2501 6.41371 1.43987C4.96897 1.63411 3.82895 2.03945 2.93414 2.93426C2.03933 3.82907 1.63399 4.96909 1.43975 6.41383C1.24998 7.82531 1.24999 9.63435 1.25 11.9427V12.0575C1.24999 14.3659 1.24998 16.1749 1.43975 17.5864C1.63399 19.0312 2.03933 20.1712 2.93414 21.066C3.82895 21.9608 4.96897 22.3661 6.41371 22.5604C7.82519 22.7501 9.63423 22.7501 11.9426 22.7501H12.0574C14.3658 22.7501 16.1748 22.7501 17.5863 22.5604C19.031 22.3661 20.1711 21.9608 21.0659 21.066C21.9607 20.1712 22.366 19.0312 22.5603 17.5864C22.75 16.1749 22.75 14.3659 22.75 12.0575V11.9427C22.75 9.63435 22.75 7.82532 22.5603 6.41383C22.366 4.96909 21.9607 3.82907 21.0659 2.93426C20.1711 2.03945 19.031 1.63411 17.5863 1.43987C16.1748 1.2501 14.3658 1.25011 12.0574 1.25012H11.9426ZM3.9948 3.99492C4.56445 3.42526 5.33517 3.09837 6.61358 2.92649C7.91356 2.75172 9.62178 2.75012 12 2.75012C14.3782 2.75012 16.0864 2.75172 17.3864 2.92649C18.6648 3.09837 19.4355 3.42526 20.0052 3.99492C20.5749 4.56457 20.9018 5.3353 21.0736 6.6137C21.2484 7.91368 21.25 9.6219 21.25 12.0001C21.25 14.3783 21.2484 16.0866 21.0736 17.3865C20.9018 18.6649 20.5749 19.4357 20.0052 20.0053C19.4355 20.575 18.6648 20.9019 17.3864 21.0738C16.0864 21.2485 14.3782 21.2501 12 21.2501C9.62178 21.2501 7.91356 21.2485 6.61358 21.0738C5.33517 20.9019 4.56445 20.575 3.9948 20.0053C3.42514 19.4357 3.09825 18.6649 2.92637 17.3865C2.75159 16.0866 2.75 14.3783 2.75 12.0001C2.75 9.6219 2.75159 7.91368 2.92637 6.6137C3.09825 5.3353 3.42514 4.56457 3.9948 3.99492Z"/></svg>