<svg viewBox="0 0 24 24" xmlns="http://www.w3.org/2000/svg"><path fill-rule="evenodd" clip-rule="evenodd" d="M13.2609 13.7501C12.9375 13.245 12.75 12.6444 12.75 12.0001C12.75 10.2052 14.2051 8.75012 16 8.75012C17.7949 8.75012 19.25 10.2052 19.25 12.0001C19.25 13.795 17.7949 15.2501 16 15.2501H8C6.20507 15.2501 4.75 13.795 4.75 12.0001C4.75 10.2052 6.20507 8.75012 8 8.75012C9.79493 8.75012 11.25 10.2052 11.25 12.0001C11.25 12.6444 11.0625 13.245 10.7391 13.7501H13.2609ZM14.25 12.0001C14.25 11.0336 15.0335 10.2501 16 10.2501C16.9665 10.2501 17.75 11.0336 17.75 12.0001C17.75 12.9666 16.9665 13.7501 16 13.7501C15.0335 13.7501 14.25 12.9666 14.25 12.0001ZM8 13.7501C8.9665 13.7501 9.75 12.9666 9.75 12.0001C9.75 11.0336 8.9665 10.2501 8 10.2501C7.0335 10.2501 6.25 11.0336 6.25 12.0001C6.25 12.9666 7.0335 13.7501 8 13.7501Z"/><path fill-rule="evenodd" clip-rule="evenodd" d="M12 1.25012C6.06294 1.25012 1.25 6.06306 1.25 12.0001C1.25 17.9372 6.06294 22.7501 12 22.7501C17.9371 22.7501 22.75 17.9372 22.75 12.0001C22.75 6.06306 17.9371 1.25012 12 1.25012ZM2.75 12.0001C2.75 6.89149 6.89137 2.75012 12 2.75012C17.1086 2.75012 21.25 6.89149 21.25 12.0001C21.25 17.1088 17.1086 21.2501 12 21.2501C6.89137 21.2501 2.75 17.1088 2.75 12.0001Z"/></svg>